# xmcd
#
# Track frame offsets: 
#        150
#        13892
#        26437
#        41357
#        54655
#        69715
#        83872
#        100390
#        116130
#        132882
#        148515
#
# Disc length: 2207 seconds
#
# Revision: 6
# Processed by: cddbd v1.5.2PL0 Copyright (c) Steve Scherf et al.
# Submitted via: ExactAudioCopyFreeDBPlugin 1.0
#
DISCID=98089d0b
DTITLE=Tracy Lawrence - Lessons Learned
DYEAR=2000
DGENRE=Country
TTITLE0=The Holes That He Dug
TTITLE1=Long Wet Kiss
TTITLE2=From the Inside Out
TTITLE3=Lessons Learned
TTITLE4=The Man I Was
TTITLE5=Lonely
TTITLE6=Just You and Me
TTITLE7=Steps
TTITLE8=From Here to Kingdom Come
TTITLE9=Up All Night
TTITLE10=Unforgiven
EXTD=YEAR: 2000 ID3G:   2
EXTT0=
EXTT1=
EXTT2=
EXTT3=
EXTT4=
EXTT5=
EXTT6=
EXTT7=
EXTT8=
EXTT9=
EXTT10=
PLAYORDER=
